<?xml version="1.0" ?><!DOCTYPE svg  PUBLIC '-//W3C//DTD SVG 1.1//EN'  'http://www.w3.org/Graphics/SVG/1.1/DTD/svg11.dtd'><svg height="140px" id="Layer_1" style="enable-background:new 0 0 140 140;" version="1.1" viewBox="0 0 140 140" width="140px" xml:space="preserve" xmlns="http://www.w3.org/2000/svg" xmlns:xlink="http://www.w3.org/1999/xlink"><g><path d="M70,130c-33.084,0-60-26.916-60-60s26.916-60,60-60c33.084,0,60,26.916,60,60S103.084,130,70,130z" style="fill:#F2F2F2;"/><circle cx="70" cy="70" r="58.064" style="fill:#3DB39E;"/><g><g><path d="M63.635,58.387c-0.535,0-1-0.433-1-0.968v-6.774c0-0.535,0.465-0.968,1-0.968s1,0.433,1,0.968     v6.774C64.635,57.954,64.17,58.387,63.635,58.387z" style="fill:#1A1A1A;"/><g><path d="M57.447,69.092c-0.088,0-0.178-0.011-0.266-0.037l-14.693-4.141      c-0.416-0.118-0.854-0.498-0.854-0.931V37.097c0-0.535,0.465-0.968,1-0.968s1,0.433,1,0.968v26.156l13.958,3.941      c0.514,0.146,0.872,0.682,0.726,1.195C58.198,68.815,57.867,69.092,57.447,69.092z" style="fill:#1A1A1A;"/><path d="M57.446,69.092c-0.244,0-0.488-0.092-0.676-0.275l-7.806-7.573      c-0.187-0.182-0.33-0.432-0.33-0.693V33.225c0-0.535,0.465-0.968,1-0.968s1,0.433,1,0.968v26.917l7.481,7.288      c0.383,0.374,0.393,0.986,0.021,1.369C57.948,68.995,57.698,69.092,57.446,69.092z" style="fill:#1A1A1A;"/><path d="M45.635,106.773c-0.535,0-1-0.433-1-0.968V78.719c0-0.272,0.217-0.533,0.42-0.717l10.667-9.607      c0.396-0.359,1.033-0.328,1.392,0.068s0.271,1.008-0.125,1.367l-10.354,9.318v26.658      C46.635,106.341,46.17,106.773,45.635,106.773z" style="fill:#1A1A1A;"/><path d="M38.635,109.677c-0.535,0-1-0.433-1-0.968V75.287c0-0.396,0.456-0.751,0.824-0.899l17.702-7.03      c0.498-0.198,1.113,0.042,1.313,0.54c0.198,0.496-0.199,1.059-0.695,1.258l-17.144,6.787v32.766      C39.635,109.245,39.17,109.677,38.635,109.677z" style="fill:#1A1A1A;"/></g></g><g><path d="M75.635,58.387c0.535,0,1-0.433,1-0.968v-6.774c0-0.535-0.465-0.968-1-0.968s-1,0.433-1,0.968v6.774     C74.635,57.954,75.1,58.387,75.635,58.387z"/><g><path d="M82.553,69.092c0.088,0,0.178-0.011,0.266-0.037l14.328-4.141c0.416-0.118,0.488-0.498,0.488-0.931V37.097      c0-0.535-0.465-0.968-1-0.968s-1,0.433-1,0.968v26.156l-13.592,3.941c-0.516,0.146-0.69,0.682-0.543,1.195      C81.621,68.815,82.133,69.092,82.553,69.092z"/><path d="M82.554,69.092c0.244,0,0.488-0.092,0.677-0.275l7.439-7.573c0.188-0.182-0.035-0.432-0.035-0.693V33.225      c0-0.535-0.465-0.968-1-0.968c-0.534,0-1,0.433-1,0.968v26.917L81.52,67.43c-0.383,0.374-0.212,0.986,0.162,1.369      C81.871,68.995,82.303,69.092,82.554,69.092z"/><path d="M93.635,106.773c0.535,0,1-0.433,1-0.968V78.719c0-0.272,0.148-0.533-0.055-0.717l-10.485-9.607      c-0.396-0.359-0.94-0.328-1.3,0.068s-0.592,1.008-0.195,1.367l10.035,9.318v26.658C92.635,106.341,93.1,106.773,93.635,106.773z      "/><path d="M100.635,109.677c0.535,0,1-0.433,1-0.968V75.287c0-0.396-0.091-0.751-0.458-0.899l-17.521-7.03      c-0.496-0.198-1.021,0.042-1.221,0.54c-0.199,0.496-0.121,1.059,0.376,1.258l16.823,6.787v32.766      C99.635,109.245,100.1,109.677,100.635,109.677z"/></g></g><path d="M83.568,68.586c0.021-0.152-0.024-0.304-0.024-0.462c0-7.627-5.972-13.834-13.298-13.834    c-0.079,0-0.16,0.012-0.24,0.013c-0.079-0.001-0.159-0.013-0.238-0.013c-7.326,0-13.288,6.207-13.288,13.834    c0,0.158-0.433,0.31-0.412,0.462c0.008,0.059-0.433,0.117-0.433,0.128V75H70h13.635v-6.286    C83.635,68.703,83.561,68.645,83.568,68.586z" style="fill:#65544C;"/><path d="M78.684,66.188c0,0.094,0.225,0.187,0.229,0.277c2.164,2.292,3.724,5.139,4.724,8.297v-6.049    c0-0.011-0.074-0.069-0.067-0.128c0.022-0.152-0.023-0.304-0.023-0.462c0-5.679-3.337-10.565-8.035-12.693    c-0.088-0.04-0.203-0.076-0.292-0.114c-0.263-0.112-0.544-0.212-0.815-0.307c-0.168-0.058-0.344-0.115-0.515-0.166    c-0.19-0.058-0.386-0.106-0.579-0.155c-0.238-0.059-0.479-0.117-0.721-0.163c-0.032-0.005-0.064-0.009-0.096-0.015    C76.205,56.967,78.684,61.277,78.684,66.188z" style="fill:#403530;"/><path d="M70.182,62.621c-0.062,0-0.12,0.008-0.182,0.009c-0.062-0.001-0.12-0.009-0.182-0.009    c-10.139,0-18.387,8.249-18.387,18.387c0,10.139,8.248,18.387,18.387,18.387c0.062,0,0.12-0.008,0.182-0.009    c0.062,0.001,0.12,0.009,0.182,0.009c10.139,0,18.387-8.248,18.387-18.387C88.568,70.87,80.32,62.621,70.182,62.621z" style="fill:#402A1F;"/><path d="M88.476,79.171c-0.028-0.29-0.085-0.571-0.127-0.856c-0.046-0.307-0.081-0.615-0.141-0.916    c-0.077-0.386-0.183-0.76-0.283-1.136c-0.05-0.188-0.09-0.38-0.146-0.565c-0.136-0.445-0.297-0.878-0.463-1.309    c-0.041-0.104-0.074-0.212-0.117-0.315c-0.195-0.479-0.416-0.947-0.652-1.405c-0.021-0.045-0.042-0.093-0.066-0.138    c-0.257-0.489-0.535-0.966-0.832-1.429c-0.009-0.012-0.015-0.022-0.021-0.033c-0.615-0.95-1.316-1.84-2.09-2.66    c-1.422-1.505-3.086-2.771-4.939-3.729c0.053,0.496,0.086,0.999,0.086,1.509c0,0.094,0.006,0.187,0.008,0.277    c3.114,3.295,5.039,7.727,5.039,12.607c0,10.138-8.248,18.387-18.388,18.387c-0.062,0-0.12-0.008-0.182-0.009    c-0.062,0.001-0.12,0.009-0.181,0.009c-1.493,0-2.938-0.198-4.328-0.536c0.308,0.179,0.623,0.345,0.942,0.506    c0.098,0.05,0.198,0.097,0.297,0.145c0.492,0.237,0.998,0.45,1.513,0.645c0.196,0.073,0.391,0.149,0.589,0.216    c0.248,0.084,0.499,0.16,0.751,0.233c0.328,0.095,0.659,0.18,0.993,0.256c0.196,0.045,0.39,0.091,0.588,0.13    c0.456,0.088,0.917,0.158,1.383,0.211c0.154,0.019,0.308,0.033,0.463,0.047c0.543,0.049,1.09,0.084,1.646,0.084    c0.062,0,0.12-0.009,0.182-0.01c0.062,0.001,0.12,0.01,0.182,0.01c10.14,0,18.388-8.25,18.388-18.388    C88.568,80.388,88.535,79.775,88.476,79.171z" style="fill:#261913;"/><path d="M73.408,82h-2.773v-0.992c0-0.533-0.465-0.968-1-0.968s-1,0.435-1,0.968V82h-2.042    c-0.534,0-0.968,0.465-0.968,1s0.434,1,0.968,1h2.042v7.693c0,0.533,0.465,0.968,1,0.968s1-0.435,1-0.968V84h2.773    c0.533,0,0.968-0.465,0.968-1S73.941,82,73.408,82z" style="fill:#965E1A;"/></g></g></svg>